<?xml version="1.0" encoding="UTF-8" standalone="no"?>
<svg
   xmlns:dc="http://purl.org/dc/elements/1.1/"
   xmlns:cc="http://creativecommons.org/ns#"
   xmlns:rdf="http://www.w3.org/1999/02/22-rdf-syntax-ns#"
   xmlns:svg="http://www.w3.org/2000/svg"
   xmlns="http://www.w3.org/2000/svg"
   id="svg14"
   version="1.1"
   fill="none"
   viewBox="0 0 500.00006 500"
   height="500"
   width="500.00006">
  <metadata
     id="metadata20">
    <rdf:RDF>
      <cc:Work
         rdf:about="">
        <dc:format>image/svg+xml</dc:format>
        <dc:type
           rdf:resource="http://purl.org/dc/dcmitype/StillImage" />
        <dc:title></dc:title>
      </cc:Work>
    </rdf:RDF>
  </metadata>
  <defs
     id="defs18" />
  <ellipse
     style="stroke-width:1.00707"
     ry="102.54712"
     rx="101.11147"
     cx="398.88858"
     cy="102.54712"
     fill="#040d14"
     id="circle2-7" />
  <ellipse
     style="stroke-width:1.00707"
     ry="207.8313"
     rx="204.92166"
     cx="204.92166"
     cy="292.1687"
     fill="#040d14"
     id="circle4-0" />
  <path
     style="fill:#a62dd8;fill-opacity:1;stroke:none;stroke-width:1.00707px;stroke-linecap:butt;stroke-linejoin:miter;stroke-opacity:1"
     d="m 92.942502,389.4772 8.342898,-14.3193 9.6265,-0.48816 12.1935,3.57982 21.82,0.65088 47.3302,-0.97632 9.46606,13.01756 -2.40662,28.47588 -14.27924,7.81053 -30.3234,-7.81053 -55.191798,-2.60351 -8.1825,-4.71886 z"
     id="path851-2" />
  <path
     d="m 214.97579,129.1367 c -0.39622,0 -0.80739,0 -1.23351,0.0617 -97.98558,9.78864 -126.475978,117.88026 -120.943878,155.3918 9.778398,66.33753 27.854998,81.06294 95.301798,72.1845 a 129.52608,133.64699 0 0 0 21.76212,-5.06017 c -1.96614,-10.89168 -5.73394,-37.28785 -5.38258,-77.90803 0.45602,-51.9824 9.41953,-65.00307 10.30167,-66.16012 1.25594,-3.96482 24.7076,-78.64082 0.19438,-78.52512 z m 81.30702,68.17338 c -23.96748,0.10799 -54.73795,5.56927 -70.81097,8.77816 -5.30783,9.2564 -13.83027,29.82875 -13.03035,66.21411 0.82981,37.85868 5.23307,64.09285 7.6029,75.8022 53.82592,-20.86547 119.55334,-74.52173 109.4535,-139.07741 -1.36059,-8.93243 -15.41514,-11.80191 -33.21508,-11.71706 z M 154.5039,212.59085 h 0.4485 c 7.3338,0.30856 12.9481,7.6674 12.5295,16.43012 v 0 c -0.4186,8.76273 -6.7282,15.62018 -14.0396,15.31163 v 0 c -7.3413,-0.30854 -12.9481,-7.65968 -12.5295,-16.43012 v 0 c 0.4037,-8.55445 6.4218,-15.33476 13.5911,-15.31933 z m 87.09329,33.48503 h 0.44107 c 7.34126,0.30855 12.94812,7.65967 12.53695,16.43011 v 0 c -0.41864,8.76273 -6.72824,15.62017 -14.03959,15.31163 v 0 c -7.34126,-0.30855 -12.94811,-7.6674 -12.53695,-16.4301 0.41116,-8.56217 6.42173,-15.33478 13.59852,-15.32706 z M 119.9506,307.24525 c 4.2463,-0.0541 9.3074,0.97193 13.7406,1.9207 10.6605,2.31412 17.314,6.7726 22.0088,14.46315 5.9059,9.68064 18.398,30.45355 -9.3522,24.96142 -16.544,-3.27833 -30.5089,-16.137 -34.2094,-26.5813 -4.0968,-11.57051 0.7476,-14.65598 7.8122,-14.76397 z m 146.23456,30.54612 a 6.5861983,6.7957403 0 0 0 -2.72866,0.81766 c -29.78369,16.6538 -73.6967,34.77321 -119.0973,29.67446 -10.1597,-1.14161 -21.2538,9.96607 -21.2538,9.96607 0,0 -11.9987,-6.76488 -18.2634,-5.73897 -18.397998,3.01605 -24.513198,40.24221 -14.002198,49.66059 2.938,2.63036 11.714598,2.72292 11.714598,2.72292 0,0 -1.5998,8.36933 -0.4112,13.5992 5.5919,24.56032 198.10928,20.76519 208.80717,-2.89262 7.53564,-16.6461 -25.55983,-99.11291 -44.76521,-97.80931 z M 106.5465,377.32392 c 8.5747,-0.26997 24.7674,9.81178 21.179,15.07249 -4.4855,6.56434 -4.1042,9.5341 -2.5194,17.12434 1.5849,7.59028 -20.9846,12.90498 -28.071698,8.72417 -9.9129,-5.86239 -3.8201,-38.0438 7.782398,-40.72045 a 8.8438966,9.1252678 0 0 1 1.6072,-0.20055 z m 40.175,6.87288 a 15.519804,16.013572 0 0 1 2.3549,0.16971 c 9.0233,1.40387 15.2507,10.64485 13.9051,20.64947 -1.3457,10.00462 -9.7784,16.9855 -18.7494,15.62018 v 0 c -9.0308,-1.39617 -15.2582,-10.63716 -13.905,-20.64177 v 0 c 1.211,-9.00956 8.2234,-15.72045 16.4468,-15.75902 z m 43.9579,0.55539 a 13.164921,13.583767 0 0 1 5.4424,0.99506 c 10.36146,5.10643 6.89268,37.65041 -4.4855,41.18326 -7.7599,2.41439 -27.2793,-7.25084 -23.9226,-13.11323 3.9322,-6.8806 3.3192,-9.81179 1.1288,-17.26319 -1.7792,-6.0475 12.4547,-11.79419 21.8145,-11.78648 z"
     class="cls-2"
     id="Victor-1"
     style="fill:#ffffff;stroke:#a62dd8;stroke-width:15.106;stroke-linecap:round;stroke-linejoin:round;stroke-miterlimit:4;stroke-dasharray:none;stroke-opacity:1;paint-order:markers stroke fill" />
  <g
     id="g28">
    <path
       d="m 415.29447,27.919204 c -10.90635,0 -24.30397,16.155194 -32.62552,36.488093 -29.15492,7.033204 -58.40846,23.413117 -58.40846,29.848005 0,6.102898 15.6802,28.528648 44.56956,31.095048 23.32129,2.07299 37.31614,-9.58557 50.0112,0.51824 7.25552,5.7754 -4.40308,24.35782 -49.75207,21.76658 -3.29832,-0.18824 -6.05676,-0.22721 -8.82643,-0.26744 -5.15414,-9.02431 -18.98144,-19.9446 -22.95689,-19.9446 -4.91717,0 -0.60736,8.29202 -0.60736,24.87609 0,16.58402 -4.30981,24.87601 0.60736,24.87601 4.01709,0 18.10666,-9.84232 23.11883,-18.43839 19.50039,3.74329 49.09761,6.45276 67.48595,1.85438 14.07532,-3.51884 24.3868,-8.54113 31.62951,-14.72967 3.52779,3.01957 6.86797,5.42241 9.49043,6.43767 2.16726,-2.16728 1.325,-9.16215 -0.5749,-17.09419 3.47016,-6.10574 5.06099,-12.89655 5.06099,-20.2199 0,-28.49241 -19.7599,-45.426766 -44.86914,-51.404001 -15.57366,-28.341837 -2.97179,-35.662128 -13.35306,-35.662128 z"
       style="fill:#fdfdfd;fill-opacity:1;stroke:#a62dd8;stroke-width:9;stroke-linejoin:miter;stroke-miterlimit:4;stroke-dasharray:none;stroke-opacity:1;paint-order:markers stroke fill"
       id="path2-9" />
    <path
       style="fill:#a62dd8;fill-opacity:1;stroke-width:15.1057;stroke-miterlimit:4;stroke-dasharray:none"
       id="path4-9"
       d="m 386.45056,79.744265 c 0,3.437049 -2.78195,6.21901 -6.219,6.21901 -3.43704,0 -6.219,-2.781961 -6.219,-6.21901 0,-3.437014 2.78196,-2.072975 6.219,-2.072975 3.43705,0 6.219,-1.364039 6.219,2.072975 z"
       fill="#292f33" />
    <path
       style="fill:#a62dd8;fill-opacity:1;stroke-width:15.1057;stroke-miterlimit:4;stroke-dasharray:none"
       id="path8-0-0"
       d="m 435.87512,121.20433 33.15145,31.09508 c 0,0 -13.44135,7.59965 -33.15145,-31.09508 z"
       fill="#292f33" />
    <path
       style="fill:#a62dd8;fill-opacity:1;stroke-width:15.1057;stroke-miterlimit:4;stroke-dasharray:none"
       id="path12-9"
       d="m 361.57454,112.11213 c 0,2.044 -2.10617,11.08229 -4.14601,11.08229 -2.03983,0 -4.14598,-9.03829 -4.14598,-11.08229 v -7.37574 c 0,-2.04397 2.10615,3.68579 4.14598,3.68579 2.03984,0 4.14601,-5.72976 4.14601,-3.68579 z m 12.43802,0 c 0,2.044 -2.10618,11.08229 -4.14602,11.08229 -2.03983,0 -4.146,-9.03829 -4.146,-11.08229 v -7.37574 c 0,-2.04397 2.10617,3.68579 4.146,3.68579 2.03984,0 4.14602,-5.72976 4.14602,-3.68579 z m 12.438,-4.146 c 0,2.04399 -2.10615,11.08229 -4.14597,11.08229 -2.03984,0 -4.14603,-9.0383 -4.14603,-11.08229 v -7.37574 c 0,-2.043977 2.10619,3.68579 4.14603,3.68579 2.03982,0 4.14597,-5.729767 4.14597,-3.68579 z m 12.43803,0 c 0,2.04399 -2.10617,11.08229 -4.14599,11.08229 -2.03983,0 -4.14602,-9.0383 -4.14602,-11.08229 v -7.37574 c 0,-2.043977 2.10619,3.68579 4.14602,3.68579 2.03982,0 4.14599,-5.729767 4.14599,-3.68579 z"
       fill="#ffffff" />
    <path
       style="fill:#fdfdfd;fill-opacity:1;stroke-width:15.1057;stroke-miterlimit:4;stroke-dasharray:none"
       id="path14-4"
       d="m 349.13653,110.83931 29.02203,-4.14601 h 24.87603 v -8.291997 h -53.89806 z"
       fill="#66757F" />
    <path
       style="fill:#a62dd8;fill-opacity:1;stroke-width:15.1057;stroke-miterlimit:4;stroke-dasharray:none"
       id="path16-9"
       d="m 400.56279,107.41304 c -16.58403,-8.636132 -55.6249,0.0751 -61.97656,6.39357 1.94445,1.49256 4.07923,2.88331 6.39686,4.21418 25.32792,-13.60303 58.53165,-9.06544 55.5797,-10.60775 z"
       fill="#292f33" />
  </g>
</svg>
